<mxfile host="Electron" agent="Mozilla/5.0 (Macintosh; Intel Mac OS X 10_15_7) AppleWebKit/537.36 (KHTML, like Gecko) draw.io/25.0.2 Chrome/128.0.6613.186 Electron/32.2.5 Safari/537.36" version="25.0.2">
  <diagram name="Page-1" id="BBWy4NrkH1_kUUyP_85_">
    <mxGraphModel dx="1010" dy="739" grid="1" gridSize="10" guides="1" tooltips="1" connect="1" arrows="1" fold="1" page="1" pageScale="1" pageWidth="827" pageHeight="1169" math="0" shadow="0">
      <root>
        <mxCell id="0" />
        <mxCell id="1" parent="0" />
        <mxCell id="qna7vA0bupx7i10zrgWt-12" style="edgeStyle=orthogonalEdgeStyle;rounded=0;orthogonalLoop=1;jettySize=auto;html=1;" edge="1" parent="1" source="qna7vA0bupx7i10zrgWt-5" target="qna7vA0bupx7i10zrgWt-8">
          <mxGeometry relative="1" as="geometry">
            <Array as="points">
              <mxPoint x="645" y="420" />
            </Array>
          </mxGeometry>
        </mxCell>
        <mxCell id="qna7vA0bupx7i10zrgWt-14" style="edgeStyle=orthogonalEdgeStyle;rounded=0;orthogonalLoop=1;jettySize=auto;html=1;" edge="1" parent="1" source="qna7vA0bupx7i10zrgWt-5" target="qna7vA0bupx7i10zrgWt-9">
          <mxGeometry relative="1" as="geometry" />
        </mxCell>
        <mxCell id="qna7vA0bupx7i10zrgWt-5" value="Broker" style="image;aspect=fixed;perimeter=ellipsePerimeter;html=1;align=center;shadow=0;dashed=0;spacingTop=3;image=img/lib/active_directory/generic_server.svg;" vertex="1" parent="1">
          <mxGeometry x="400" y="350" width="50.4" height="90" as="geometry" />
        </mxCell>
        <mxCell id="qna7vA0bupx7i10zrgWt-11" style="edgeStyle=orthogonalEdgeStyle;rounded=0;orthogonalLoop=1;jettySize=auto;html=1;entryX=0;entryY=0.5;entryDx=0;entryDy=0;" edge="1" parent="1" source="qna7vA0bupx7i10zrgWt-6" target="qna7vA0bupx7i10zrgWt-5">
          <mxGeometry relative="1" as="geometry" />
        </mxCell>
        <mxCell id="qna7vA0bupx7i10zrgWt-6" value="Sensor Camera" style="image;aspect=fixed;perimeter=ellipsePerimeter;html=1;align=center;shadow=0;dashed=0;spacingTop=3;image=img/lib/active_directory/generic_server.svg;" vertex="1" parent="1">
          <mxGeometry x="180" y="550" width="50.4" height="90" as="geometry" />
        </mxCell>
        <mxCell id="qna7vA0bupx7i10zrgWt-10" style="edgeStyle=orthogonalEdgeStyle;rounded=0;orthogonalLoop=1;jettySize=auto;html=1;entryX=0;entryY=0.5;entryDx=0;entryDy=0;" edge="1" parent="1" source="qna7vA0bupx7i10zrgWt-7" target="qna7vA0bupx7i10zrgWt-5">
          <mxGeometry relative="1" as="geometry" />
        </mxCell>
        <mxCell id="qna7vA0bupx7i10zrgWt-7" value="Sensor Radio" style="image;aspect=fixed;perimeter=ellipsePerimeter;html=1;align=center;shadow=0;dashed=0;spacingTop=3;image=img/lib/active_directory/generic_server.svg;" vertex="1" parent="1">
          <mxGeometry x="310" y="550" width="50.4" height="90" as="geometry" />
        </mxCell>
        <mxCell id="qna7vA0bupx7i10zrgWt-13" style="edgeStyle=orthogonalEdgeStyle;rounded=0;orthogonalLoop=1;jettySize=auto;html=1;entryX=1;entryY=0.25;entryDx=0;entryDy=0;" edge="1" parent="1" source="qna7vA0bupx7i10zrgWt-8" target="qna7vA0bupx7i10zrgWt-5">
          <mxGeometry relative="1" as="geometry">
            <Array as="points">
              <mxPoint x="700" y="595" />
              <mxPoint x="700" y="375" />
            </Array>
          </mxGeometry>
        </mxCell>
        <mxCell id="qna7vA0bupx7i10zrgWt-8" value="Aggregator / Randomness" style="image;aspect=fixed;perimeter=ellipsePerimeter;html=1;align=center;shadow=0;dashed=0;spacingTop=3;image=img/lib/active_directory/generic_server.svg;" vertex="1" parent="1">
          <mxGeometry x="620" y="550" width="50.4" height="90" as="geometry" />
        </mxCell>
        <mxCell id="qna7vA0bupx7i10zrgWt-9" value="Consumer" style="image;aspect=fixed;perimeter=ellipsePerimeter;html=1;align=center;shadow=0;dashed=0;spacingTop=3;image=img/lib/active_directory/generic_server.svg;" vertex="1" parent="1">
          <mxGeometry x="400" y="120" width="50.4" height="90" as="geometry" />
        </mxCell>
        <mxCell id="qna7vA0bupx7i10zrgWt-16" style="edgeStyle=orthogonalEdgeStyle;rounded=0;orthogonalLoop=1;jettySize=auto;html=1;" edge="1" parent="1" source="qna7vA0bupx7i10zrgWt-15" target="qna7vA0bupx7i10zrgWt-9">
          <mxGeometry relative="1" as="geometry" />
        </mxCell>
        <mxCell id="qna7vA0bupx7i10zrgWt-17" value="HTTP" style="edgeLabel;html=1;align=center;verticalAlign=middle;resizable=0;points=[];" vertex="1" connectable="0" parent="qna7vA0bupx7i10zrgWt-16">
          <mxGeometry x="0.5645" y="-1" relative="1" as="geometry">
            <mxPoint as="offset" />
          </mxGeometry>
        </mxCell>
        <mxCell id="qna7vA0bupx7i10zrgWt-15" value="" style="aspect=fixed;sketch=0;html=1;dashed=0;whitespace=wrap;verticalLabelPosition=bottom;verticalAlign=top;fillColor=#2875E2;strokeColor=#ffffff;points=[[0.005,0.63,0],[0.1,0.2,0],[0.9,0.2,0],[0.5,0,0],[0.995,0.63,0],[0.72,0.99,0],[0.5,1,0],[0.28,0.99,0]];shape=mxgraph.kubernetes.icon2;prIcon=user" vertex="1" parent="1">
          <mxGeometry x="250" y="20" width="50" height="48" as="geometry" />
        </mxCell>
      </root>
    </mxGraphModel>
  </diagram>
</mxfile>
